<svg width="128.5" height="14" viewBox="0 0 128.5 13.9988" fill="none" xmlns="http://www.w3.org/2000/svg">
<g clip-path="url(#clip0_dark)">
<path d="M9.85956 0.000926283H6.85351C6.73816 0.000926283 6.64316 0.0959255 6.64316 0.211282V5.13088H3.42676V0.211282C3.42676 0.0959255 3.33176 0.000926283 3.2164 0.000926283H0.210355C0.0949992 0.000926283 0 0.0959255 0 0.211282V13.5519C0 13.6672 0.0949992 13.7622 0.210355 13.7622H3.20962C3.32497 13.7622 3.41997 13.6672 3.41997 13.5519V8.198H6.63637V13.5519C6.63637 13.6672 6.73137 13.7622 6.84673 13.7622H9.85956C9.97492 13.7622 10.0699 13.6672 10.0699 13.5519V0.211282C10.0699 0.0959255 9.97492 0.000926283 9.85956 0.000926283ZM17.1338 2.9459C16.2449 2.9459 15.3763 3.08161 14.562 3.34626C13.7545 3.6109 12.9877 3.94339 12.282 4.34375C12.1803 4.39803 12.1463 4.52696 12.2006 4.62874L13.266 6.5898C13.3202 6.69158 13.4492 6.7323 13.551 6.67801C14.1074 6.3998 14.6434 6.16909 15.132 6.00623C15.607 5.84338 16.082 5.76195 16.5434 5.76195C17.1881 5.76195 17.6699 5.87731 17.982 6.10802C18.2263 6.29123 18.3823 6.52194 18.457 6.82051C17.3509 6.89515 16.3874 7.0173 15.5934 7.18694C14.7317 7.37694 14.0124 7.62801 13.456 7.93336C12.886 8.25229 12.4653 8.64585 12.2006 9.10728C11.936 9.5687 11.807 10.1116 11.807 10.7155C11.807 11.1769 11.8953 11.6112 12.0581 12.0048C12.2278 12.3983 12.4653 12.7444 12.7706 13.043C13.076 13.3415 13.4492 13.579 13.8902 13.7419C14.3245 13.9047 14.8131 13.993 15.3559 13.993C16.0345 13.993 16.7063 13.8505 17.3441 13.579C17.8938 13.3415 18.4095 13.0497 18.8845 12.7105L19.0541 13.579C19.0745 13.6808 19.1627 13.7487 19.2645 13.7487H21.7209C21.8362 13.7487 21.9312 13.6537 21.9312 13.5383V7.72979C21.9312 6.12159 21.497 4.90696 20.6352 4.11303C19.7734 3.33947 18.5995 2.9459 17.1338 2.9459ZM18.4977 10.3966C18.1788 10.6341 17.8463 10.8308 17.4934 10.9937C17.127 11.1633 16.7334 11.2515 16.3127 11.2515C15.9192 11.2515 15.607 11.1837 15.3899 11.048C15.1999 10.9326 15.1117 10.7562 15.1117 10.5051C15.1117 10.3287 15.1592 10.1591 15.2542 10.003C15.3492 9.84692 15.5256 9.70442 15.7699 9.58228C16.0413 9.44656 16.4145 9.33121 16.8827 9.24299C17.317 9.16156 17.8531 9.09371 18.4909 9.05299L18.4977 10.3966ZM32.7815 10.288C32.7476 10.2405 32.7001 10.2066 32.639 10.193C32.5847 10.1794 32.5237 10.193 32.4762 10.2269C32.1369 10.478 31.7433 10.6951 31.309 10.8783C30.8883 11.0548 30.4201 11.1498 29.918 11.1498C29.124 11.1498 28.4998 10.9123 28.0112 10.4373C27.5226 9.95549 27.2851 9.31763 27.2851 8.483C27.2851 7.64836 27.5294 7.01051 28.0383 6.52873C28.5405 6.05373 29.2055 5.80945 30.0198 5.80945C30.7187 5.80945 31.438 6.0673 32.1437 6.56944C32.2387 6.6373 32.3676 6.61694 32.4354 6.52194L33.8265 4.66267C33.8944 4.57446 33.8808 4.45232 33.7994 4.37768C33.3447 3.97054 32.7747 3.62447 32.1097 3.35304C30.7933 2.82376 29.0358 2.81697 27.5566 3.31911C26.8237 3.5634 26.1723 3.92304 25.6159 4.39125C25.0594 4.85946 24.6048 5.44302 24.2723 6.12838C23.9398 6.81373 23.7702 7.60765 23.7702 8.483C23.7702 9.35156 23.9194 10.1455 24.218 10.8308C24.5166 11.5162 24.9373 12.1065 25.4666 12.5748C25.9959 13.043 26.6201 13.4026 27.3258 13.6469C28.0248 13.8912 28.7983 14.0201 29.6262 14.0201C30.3387 14.0201 31.0851 13.898 31.8519 13.6537C32.6187 13.4094 33.3244 13.009 33.9622 12.4798C34.0436 12.4119 34.064 12.2898 34.0029 12.2015L32.7815 10.288ZM42.4375 7.59408L46.1696 3.54983C46.2239 3.48875 46.2443 3.40054 46.2103 3.31911C46.1764 3.24447 46.1018 3.19019 46.0135 3.19019H42.7225C42.6614 3.19019 42.6071 3.21733 42.5664 3.25804L39.1329 6.93587V0.204496C39.1329 0.0891398 39.0379 -0.00585938 38.9225 -0.00585938H35.9165C35.8011 -0.00585938 35.7061 0.0891398 35.7061 0.204496V13.5451C35.7061 13.6605 35.8011 13.7555 35.9165 13.7555H38.9225C39.0379 13.7555 39.1329 13.6605 39.1329 13.5451V11.1158L40.395 9.88763L42.8921 13.6605C42.9329 13.7215 43.0007 13.7555 43.0686 13.7555H46.3189C46.4003 13.7555 46.4682 13.708 46.5089 13.6401C46.5428 13.5722 46.5428 13.484 46.4953 13.423L42.4375 7.59408ZM55.8799 4.40482C55.466 3.94339 54.9367 3.58375 54.3124 3.3259C53.6881 3.06804 52.9688 2.93912 52.1681 2.93912C51.4624 2.93912 50.7703 3.06804 50.1189 3.31911C49.4607 3.57018 48.8703 3.94339 48.3614 4.41839C47.8525 4.89339 47.4385 5.47695 47.1332 6.15552C46.8278 6.83408 46.6718 7.61443 46.6718 8.46943C46.6718 9.34478 46.8278 10.1251 47.1332 10.8037C47.4385 11.4823 47.8592 12.0658 48.3817 12.5408C48.9042 13.0158 49.5285 13.3822 50.2342 13.6265C50.9331 13.8708 51.6999 13.9997 52.5142 13.9997C53.2131 13.9997 53.9392 13.8912 54.6585 13.674C55.3845 13.4569 56.0495 13.1583 56.6331 12.7783C56.7281 12.7173 56.7552 12.5951 56.7077 12.5001L55.7306 10.7087C55.6763 10.6069 55.5474 10.5662 55.4456 10.6205C55.0113 10.8444 54.5838 11.014 54.1835 11.1294C53.7899 11.238 53.3624 11.2923 52.9213 11.2923C52.2156 11.2923 51.6117 11.1294 51.1164 10.8037C50.6889 10.5255 50.4039 10.098 50.241 9.50763H56.8095C56.9113 9.50763 56.9927 9.43978 57.0199 9.33799C57.047 9.20907 57.0742 9.03264 57.1081 8.79514C57.1352 8.56443 57.1488 8.29979 57.1488 8.02157C57.1488 7.30908 57.0402 6.63051 56.8299 6.0198C56.6127 5.4091 56.2938 4.85946 55.8799 4.40482ZM50.2003 7.22087C50.3292 6.72551 50.5599 6.34552 50.8924 6.10123C51.286 5.80945 51.7271 5.66017 52.2292 5.66017C52.8535 5.66017 53.3081 5.82302 53.5796 6.13516C53.8171 6.42016 53.9596 6.7798 53.9935 7.21408H50.2003V7.22087ZM68.6166 3.3734C68.3044 3.2309 67.9991 3.12233 67.7073 3.05447C67.4155 2.97983 67.0287 2.9459 66.5605 2.9459C65.7123 2.9459 64.9048 3.15626 64.1652 3.57697C63.5545 3.92304 63.0116 4.43196 62.5434 5.08338L62.3534 3.38018C62.3398 3.27161 62.2516 3.19019 62.1431 3.19019H59.6866C59.5713 3.19019 59.4763 3.28518 59.4763 3.40054V13.5451C59.4763 13.6605 59.5713 13.7555 59.6866 13.7555H62.6927C62.8081 13.7555 62.903 13.6605 62.903 13.5451V8.31336C63.317 7.46515 63.8055 6.86123 64.362 6.52194C64.932 6.17587 65.5155 5.99945 66.1059 5.99945C66.4723 5.99945 66.7777 6.0198 67.0152 6.0673C67.2594 6.1148 67.5377 6.18266 67.843 6.27766C67.8973 6.29802 67.9584 6.28445 68.0126 6.2573C68.0601 6.23016 68.1009 6.18266 68.1144 6.12159L68.7251 3.60411C68.7591 3.5159 68.7116 3.41411 68.6166 3.3734ZM78.164 8.30657C78.8086 7.98086 79.3447 7.51265 79.7586 6.90873C80.2201 6.24373 80.4508 5.38874 80.4508 4.3641C80.4508 3.54304 80.3083 2.84412 80.0165 2.28091C79.7247 1.7177 79.3311 1.26306 78.829 0.923776C78.3404 0.591279 77.7636 0.346995 77.119 0.204496C76.4879 0.0687829 75.8026 -0.00585938 75.0765 -0.00585938H70.3537C70.2383 -0.00585938 70.1433 0.0891398 70.1433 0.204496V13.5451C70.1433 13.6605 70.2383 13.7555 70.3537 13.7555H73.3597C73.4751 13.7555 73.5701 13.6605 73.5701 13.5451V8.95121H74.8051L77.3022 13.6469C77.3361 13.7147 77.4108 13.7622 77.4922 13.7622H80.8647C80.9393 13.7622 81.0072 13.7215 81.0479 13.6537C81.0886 13.5858 81.0886 13.5044 81.0479 13.4433L78.164 8.30657ZM74.839 6.13516H73.5769V2.81697H74.839C75.599 2.81697 76.1758 2.93912 76.5422 3.16983C76.8883 3.38697 77.0579 3.78054 77.0579 4.35732C77.0579 5.57195 76.3522 6.13516 74.839 6.13516ZM86.9989 2.9459C86.11 2.9459 85.2414 3.08161 84.4272 3.34626C83.6197 3.6109 82.8529 3.94339 82.1472 4.34375C82.0454 4.39803 82.0115 4.52696 82.0657 4.62874L83.1311 6.5898C83.1854 6.69158 83.3143 6.7323 83.4161 6.67801C83.9725 6.3998 84.5086 6.16909 84.9972 6.00623C85.4721 5.84338 85.9471 5.76195 86.4086 5.76195C87.0532 5.76195 87.535 5.87731 87.8471 6.10802C88.0914 6.29123 88.2475 6.52194 88.3221 6.82051C87.2161 6.89515 86.2525 7.0173 85.4586 7.18694C84.5968 7.37694 83.8775 7.62801 83.3211 7.93336C82.7511 8.25229 82.3304 8.64585 82.0657 9.10728C81.8011 9.5687 81.6722 10.1116 81.6722 10.7155C81.6722 11.1769 81.7604 11.6112 81.9233 12.0048C82.0929 12.3983 82.3304 12.7444 82.6357 13.043C82.9411 13.3415 83.3143 13.579 83.7554 13.7419C84.1897 13.9047 84.6782 13.993 85.2211 13.993C85.8996 13.993 86.5714 13.8505 87.2093 13.579C87.7589 13.3415 88.2746 13.0497 88.7496 12.7105L88.9193 13.579C88.9396 13.6808 89.0278 13.7487 89.1296 13.7487H91.586C91.7014 13.7487 91.7964 13.6537 91.7964 13.5383V7.72979C91.7964 6.12159 91.3621 4.90696 90.5003 4.11303C89.6453 3.33947 88.4714 2.9459 86.9989 2.9459ZM88.3628 10.3966C88.0439 10.6341 87.7114 10.8308 87.3586 10.9937C86.9921 11.1633 86.5986 11.2515 86.1779 11.2515C85.7843 11.2515 85.4721 11.1837 85.255 11.048C85.065 10.9326 84.9768 10.7562 84.9768 10.5051C84.9768 10.3287 85.0243 10.1591 85.1193 10.003C85.2143 9.84692 85.3907 9.70442 85.635 9.58228C85.9064 9.44656 86.2796 9.33121 86.7479 9.24299C87.1821 9.16156 87.7182 9.09371 88.3561 9.05299V10.3966H88.3628ZM100.475 2.9459C99.6813 2.9459 98.9756 3.11554 98.3785 3.44125C97.8899 3.71268 97.4488 4.03161 97.0485 4.39125L96.8788 3.3734C96.8585 3.27161 96.7703 3.19697 96.6685 3.19697H94.2121C94.0967 3.19697 94.0017 3.29197 94.0017 3.40733V13.5519C94.0017 13.6672 94.0967 13.7622 94.2121 13.7622H97.2181C97.3335 13.7622 97.4285 13.6672 97.4285 13.5519V6.86801C97.7474 6.55587 98.0392 6.32516 98.3174 6.1623C98.5888 6.00623 98.9145 5.92481 99.2877 5.92481C99.7695 5.92481 100.102 6.05373 100.278 6.3048C100.468 6.58301 100.57 7.04444 100.57 7.67551V13.5451C100.57 13.6605 100.665 13.7555 100.781 13.7555H103.787C103.902 13.7555 103.997 13.6605 103.997 13.5451V7.28872C103.997 5.96552 103.712 4.90696 103.156 4.13339C102.599 3.34626 101.69 2.9459 100.475 2.9459ZM117.019 13.4297L112.961 7.59408L116.693 3.54983C116.747 3.48875 116.768 3.40054 116.734 3.31911C116.7 3.24447 116.625 3.19019 116.537 3.19019H113.246C113.185 3.19019 113.13 3.21733 113.09 3.25804L109.656 6.93587V0.204496C109.656 0.0891398 109.561 -0.00585938 109.446 -0.00585938H106.44C106.324 -0.00585938 106.229 0.0891398 106.229 0.204496V13.5451C106.229 13.6605 106.324 13.7555 106.44 13.7555H109.446C109.561 13.7555 109.656 13.6605 109.656 13.5451V11.1158L110.918 9.88763L113.409 13.6672C113.449 13.7283 113.517 13.7622 113.585 13.7622H116.835C116.917 13.7622 116.985 13.7147 117.025 13.6469C117.066 13.579 117.059 13.4908 117.019 13.4297Z" fill="#121418"/>
<path d="M128.288 13.7613C128.404 13.7613 128.499 13.6663 128.499 13.551V0.210355C128.499 0.0949992 128.404 0 128.288 0H118.632C118.517 0 118.422 0.0949992 118.422 0.210355V13.551C118.422 13.6663 118.517 13.7613 118.632 13.7613H128.288Z" fill="#2EC866"/>
</g>
<defs>
<clipPath id="clip0_dark">
<rect width="128.5" height="13.9988" fill="white"/>
</clipPath>
</defs>
</svg>
