<svg width="111" height="12" viewBox="0 0 111 12" fill="none" xmlns="http://www.w3.org/2000/svg">
<path d="M23.8037 2.84473C25.0815 2.41512 26.6002 2.42119 27.7373 2.87402C28.3114 3.10616 28.8037 3.40186 29.1963 3.75C29.2666 3.81386 29.2783 3.91867 29.2197 3.99414L28.0186 5.58496C27.96 5.66609 27.8486 5.68366 27.7666 5.62598C27.157 5.19638 26.5354 4.9756 25.9316 4.97559C25.2283 4.97559 24.6535 5.18443 24.2197 5.59082C23.7803 6.00299 23.5693 6.54873 23.5693 7.2627C23.5693 7.97666 23.7744 8.5224 24.1963 8.93457C24.6183 9.34096 25.1579 9.54395 25.8438 9.54395C26.2773 9.54393 26.6817 9.46331 27.0449 9.3125C27.4201 9.15575 27.7606 8.96969 28.0537 8.75488C28.0947 8.7259 28.1475 8.71398 28.1943 8.72559C28.247 8.73721 28.2881 8.76612 28.3174 8.80664L29.3721 10.4443C29.4248 10.5198 29.4072 10.6246 29.3369 10.6826C28.7861 11.1352 28.1767 11.4776 27.5146 11.6865C26.8524 11.8955 26.2072 12 25.5918 12C24.8767 12 24.2082 11.8897 23.6045 11.6807C22.9949 11.4717 22.4552 11.1642 21.998 10.7637C21.5409 10.3631 21.1778 9.85777 20.9199 9.27148C20.662 8.68513 20.5332 8.0058 20.5332 7.2627C20.5332 6.51378 20.6796 5.8344 20.9668 5.24805C21.254 4.66173 21.6473 4.16228 22.1279 3.76172C22.6085 3.36133 23.1709 3.05366 23.8037 2.84473ZM45.0635 2.51953C45.7551 2.51953 46.3768 2.62998 46.916 2.85059C47.4551 3.07114 47.912 3.37883 48.2695 3.77344C48.6271 4.16241 48.9033 4.63278 49.0908 5.15527C49.2725 5.67776 49.3662 6.25861 49.3662 6.86816C49.3662 7.10591 49.3545 7.33209 49.3311 7.5293C49.3018 7.73242 49.2783 7.88385 49.2549 7.99414C49.2315 8.08113 49.161 8.13953 49.0732 8.13965H43.3994C43.5401 8.64453 43.7861 9.01008 44.1553 9.24805C44.5831 9.52663 45.1045 9.66595 45.7139 9.66602C46.0949 9.66602 46.4647 9.62023 46.8047 9.52734C47.1504 9.42868 47.5195 9.28329 47.8945 9.0918C47.9824 9.04537 48.0937 9.07998 48.1406 9.16699L48.9854 10.6992C49.0263 10.7804 49.0027 10.8852 48.9209 10.9375C48.4168 11.2626 47.842 11.5183 47.2148 11.7041C46.5935 11.8899 45.966 11.9824 45.3623 11.9824C44.6592 11.9824 43.9971 11.872 43.3936 11.6631C42.784 11.4541 42.2443 11.1408 41.793 10.7344C41.3416 10.328 40.9786 9.82858 40.7148 9.24805C40.4511 8.6675 40.3154 7.99989 40.3154 7.25098C40.3154 6.51953 40.4511 5.852 40.7148 5.27148C40.9786 4.69098 41.3358 4.19152 41.7754 3.78516C42.215 3.37879 42.7254 3.05952 43.2939 2.84473C43.8565 2.63005 44.4541 2.51955 45.0635 2.51953ZM14.8008 2.52539C16.0667 2.52545 17.0808 2.86265 17.8252 3.52441C18.5694 4.20365 18.9443 5.24253 18.9443 6.61816V11.5879C18.9443 11.6865 18.8623 11.7676 18.7627 11.7676H16.6406C16.553 11.7674 16.4767 11.7098 16.459 11.623L16.3125 10.8799C15.9023 11.17 15.4571 11.4199 14.9824 11.623C14.4314 11.8553 13.8508 11.9766 13.2646 11.9766C12.7959 11.9766 12.3741 11.901 11.999 11.7617C11.618 11.6224 11.295 11.4195 11.0312 11.1641C10.7675 10.9086 10.5625 10.6121 10.416 10.2754C10.2754 9.93879 10.1992 9.56745 10.1992 9.17285C10.1992 8.65619 10.3105 8.19164 10.5391 7.79688C10.7676 7.40214 11.1307 7.06484 11.623 6.79199C12.1036 6.53077 12.7254 6.31685 13.4697 6.1543C14.1555 6.00916 14.988 5.90468 15.9434 5.84082C15.8789 5.58538 15.7442 5.38722 15.5332 5.23047C15.2636 5.03313 14.8468 4.93457 14.29 4.93457C13.8916 4.93462 13.4814 5.00428 13.0713 5.14355C12.6493 5.28289 12.1857 5.48072 11.7051 5.71875C11.6172 5.76481 11.5058 5.7295 11.459 5.64258L10.5391 3.96484C10.4924 3.87786 10.5217 3.76813 10.6094 3.72168C11.219 3.37915 11.8816 3.09458 12.5791 2.86816C13.2825 2.64177 14.033 2.52539 14.8008 2.52539ZM75.1504 2.52539C76.4223 2.52539 77.4372 2.86259 78.1758 3.52441C78.9199 4.20365 79.2949 5.24259 79.2949 6.61816V11.5879C79.2949 11.6865 79.2129 11.7676 79.1133 11.7676H76.9912C76.9035 11.7675 76.8273 11.7099 76.8096 11.623L76.6631 10.8799C76.2529 11.1701 75.8076 11.4199 75.333 11.623C74.7821 11.8553 74.2013 11.9765 73.6152 11.9766C73.1463 11.9766 72.7238 11.9011 72.3486 11.7617C71.9678 11.6224 71.6455 11.4194 71.3818 11.1641C71.1181 10.9086 70.9131 10.6121 70.7666 10.2754C70.626 9.93877 70.5498 9.56748 70.5498 9.17285C70.5498 8.65616 70.661 8.19165 70.8896 7.79688C71.1182 7.40211 71.4813 7.06485 71.9736 6.79199C72.4543 6.53075 73.0759 6.31685 73.8203 6.1543C74.5061 6.00916 75.3385 5.90468 76.2939 5.84082C76.2295 5.58539 76.0948 5.38721 75.8838 5.23047C75.6142 5.03308 75.1975 4.93457 74.6406 4.93457C74.2422 4.9346 73.832 5.0043 73.4219 5.14355C72.9998 5.28289 72.5363 5.48072 72.0557 5.71875C71.9678 5.76492 71.8564 5.72955 71.8096 5.64258L70.8896 3.96484C70.8429 3.8778 70.8721 3.7681 70.96 3.72168C71.5696 3.37915 72.2322 3.09458 72.9297 2.86816C73.6329 2.64185 74.3828 2.52544 75.1504 2.52539ZM2.77832 0.00585938C2.87797 0.00585938 2.95996 0.0878297 2.95996 0.186523V4.39551H5.73828V0.186523C5.73828 0.0879096 5.82038 0.00599084 5.91992 0.00585938H8.5166C8.61625 0.00585938 8.69824 0.0878297 8.69824 0.186523V11.5996C8.69824 11.6983 8.61625 11.7793 8.5166 11.7793H5.91406C5.81452 11.7792 5.73242 11.6982 5.73242 11.5996V7.01953H2.9541V11.5996C2.9541 11.6983 2.87211 11.7793 2.77246 11.7793H0.181641C0.0820247 11.7793 0 11.6983 0 11.5996V0.186523C0 0.0878519 0.0820246 0.00589596 0.181641 0.00585938H2.77832ZM64.8525 0C65.4795 2.89862e-05 66.0713 0.063641 66.6162 0.179688C67.173 0.301597 67.6717 0.510474 68.0938 0.794922C68.5274 1.08512 68.8671 1.47438 69.1191 1.95605C69.3711 2.4378 69.4941 3.03602 69.4941 3.73828C69.4941 4.61491 69.2951 5.34707 68.8965 5.91602C68.5391 6.43246 68.0761 6.83271 67.5195 7.11133L70.0107 11.5068C70.0456 11.559 70.0457 11.6287 70.0107 11.6865C69.9756 11.7446 69.916 11.7793 69.8516 11.7793H66.9385C66.8683 11.7792 66.8037 11.7386 66.7744 11.6807L64.6172 7.66309H63.5508V11.5938C63.5507 11.6924 63.4687 11.7734 63.3691 11.7734H60.7725C60.6729 11.7734 60.5909 11.6924 60.5908 11.5938V0.179688C60.591 0.0811233 60.6729 2.64657e-06 60.7725 0H64.8525ZM86.792 2.52539C87.8411 2.52539 88.6268 2.86771 89.1074 3.54102C89.5881 4.20284 89.834 5.10914 89.834 6.24121V11.5938C89.8339 11.6924 89.7519 11.7734 89.6523 11.7734H87.0557C86.9561 11.7734 86.8741 11.6923 86.874 11.5938V6.57227C86.874 6.0325 86.7861 5.63746 86.6221 5.39941C86.4697 5.18467 86.1826 5.07428 85.7666 5.07422C85.4442 5.07422 85.1622 5.14382 84.9277 5.27734C84.6875 5.41666 84.4355 5.61394 84.1602 5.88086V11.5996C84.16 11.6982 84.0781 11.7793 83.9785 11.7793H81.3818C81.2823 11.7793 81.2003 11.6982 81.2002 11.5996V2.91992C81.2003 2.82134 81.2823 2.74024 81.3818 2.74023H83.5039C83.5918 2.74032 83.668 2.80458 83.6855 2.8916L83.832 3.76172C84.1777 3.45416 84.5586 3.18137 84.9805 2.94922C85.4963 2.67056 86.1062 2.5254 86.792 2.52539ZM94.541 0C94.6405 2.99665e-05 94.7225 0.0811398 94.7227 0.179688V5.93945L97.6885 2.79199C97.7236 2.75729 97.7706 2.73443 97.8232 2.73438H100.666C100.742 2.73438 100.807 2.78092 100.836 2.84473C100.865 2.91439 100.848 2.98974 100.801 3.04199L97.5771 6.50195L101.082 11.4951C101.117 11.5474 101.123 11.6226 101.088 11.6807C101.053 11.7386 100.994 11.7793 100.924 11.7793H98.1162C98.0577 11.7792 97.999 11.7504 97.9639 11.6982L95.8125 8.46484L94.7227 9.51562V11.5938C94.7226 11.6924 94.6406 11.7734 94.541 11.7734H91.9443C91.8447 11.7734 91.7628 11.6924 91.7627 11.5938V0.179688C91.7629 0.0811217 91.8448 0 91.9443 0H94.541ZM33.6221 0C33.7215 0.00015548 33.8036 0.0812161 33.8037 0.179688V5.93945L36.7695 2.79199C36.8047 2.75731 36.8517 2.73438 36.9043 2.73438H39.7471C39.8233 2.73438 39.8877 2.78087 39.917 2.84473C39.9463 2.91439 39.9287 2.98974 39.8818 3.04199L36.6582 6.50195L40.1631 11.4893C40.2041 11.5415 40.2041 11.6167 40.1748 11.6748C40.1396 11.7328 40.0811 11.7734 40.0107 11.7734H37.2031C37.1446 11.7734 37.0859 11.7446 37.0508 11.6924L34.8936 8.46484L33.8037 9.51562V11.5938C33.8036 11.6923 33.7215 11.7733 33.6221 11.7734H31.0254C30.9258 11.7734 30.8438 11.6924 30.8438 11.5938V0.179688C30.8439 0.0811219 30.9258 0 31.0254 0H33.6221ZM57.4961 2.52539C57.9004 2.5254 58.2343 2.55434 58.4863 2.61816C58.7383 2.67621 59.0019 2.76973 59.2715 2.8916C59.3535 2.92643 59.3945 3.0134 59.3652 3.08887L58.8379 5.24219C58.8262 5.29444 58.791 5.33518 58.75 5.3584C58.7031 5.38157 58.6504 5.39337 58.6035 5.37598C58.3399 5.29474 58.0996 5.23692 57.8887 5.19629C57.6836 5.15567 57.4199 5.13771 57.1035 5.1377C56.5936 5.1377 56.0891 5.28888 55.5967 5.58496C55.1162 5.87518 54.6944 6.39177 54.3369 7.11719V11.5938C54.3368 11.6922 54.2547 11.7732 54.1553 11.7734H51.5586C51.459 11.7734 51.3761 11.6924 51.376 11.5938V2.91406C51.3761 2.8155 51.459 2.73438 51.5586 2.73438H53.6797C53.7733 2.73438 53.8494 2.80385 53.8613 2.89648L54.0254 4.35449C54.4298 3.79718 54.8992 3.36151 55.4268 3.06543C56.0657 2.70549 56.7634 2.52539 57.4961 2.52539ZM15.9727 7.75C15.4219 7.78482 14.959 7.84345 14.584 7.91309C14.1795 7.98856 13.8565 8.08702 13.6221 8.20312C13.4111 8.30761 13.2588 8.42998 13.1768 8.56348C13.0948 8.69693 13.0537 8.84232 13.0537 8.99316C13.0538 9.20769 13.13 9.3584 13.2939 9.45703C13.4814 9.5731 13.751 9.63082 14.0908 9.63086C14.4542 9.63086 14.7948 9.55627 15.1113 9.41113C15.4161 9.2718 15.703 9.1026 15.9785 8.89941L15.9727 7.75ZM76.3232 7.75C75.7723 7.78483 75.3087 7.84342 74.9336 7.91309C74.5293 7.98855 74.207 8.08706 73.9727 8.20312C73.7616 8.30762 73.6094 8.42995 73.5273 8.56348C73.4454 8.69695 73.4043 8.84229 73.4043 8.99316C73.4044 9.20774 73.4805 9.3584 73.6445 9.45703C73.8321 9.57311 74.1015 9.63084 74.4414 9.63086C74.8048 9.63086 75.1454 9.55627 75.4619 9.41113C75.7666 9.27182 76.0537 9.10256 76.3291 8.89941H76.3232V7.75ZM45.1162 4.84766C44.6827 4.8477 44.3018 4.97517 43.9619 5.22461C43.6761 5.43257 43.4779 5.75604 43.3662 6.17676H46.6406C46.6113 5.8054 46.4882 5.49765 46.2832 5.25391C46.0487 4.98685 45.6555 4.84766 45.1162 4.84766ZM63.5566 5.25391H64.6465C65.9534 5.25391 66.5633 4.77227 66.5635 3.7334C66.5635 3.23993 66.4171 2.90257 66.1182 2.7168C65.8016 2.51946 65.3029 2.41504 64.6465 2.41504H63.5566V5.25391Z" fill="#121418"/>
<path d="M110.818 0H102.475C102.375 0 102.293 0.0812773 102.293 0.179971V11.5936C102.293 11.6923 102.375 11.7736 102.475 11.7736H110.818C110.918 11.7736 111 11.6923 111 11.5936V0.179971C111 0.0812773 110.918 0 110.818 0Z" fill="#32C766"/>
</svg>
